<svg width="961" height="650" viewBox="0 0 361 330" fill="none" xmlns="http://www.w3.org/2000/svg">
<path d="M38.8125 174.938H30.1875C29.0438 174.938 27.9469 174.404 27.1381 173.455C26.3294 172.505 25.875 171.218 25.875 169.875V152.156C24.7313 152.156 23.6344 151.623 22.8256 150.673C22.0169 149.724 21.5625 148.436 21.5625 147.094V131.906C21.5625 129.892 22.244 127.961 23.4572 126.537C24.6703 125.113 26.3156 124.313 28.0312 124.313H40.9688C42.6844 124.313 44.3297 125.113 45.5428 126.537C46.756 127.961 47.4375 129.892 47.4375 131.906V147.094C47.4375 148.436 46.9831 149.724 46.1744 150.673C45.3656 151.623 44.2687 152.156 43.125 152.156V169.875C43.125 171.218 42.6706 172.505 41.8619 173.455C41.0531 174.404 39.9562 174.938 38.8125 174.938ZM28.0312 129.375C27.7432 129.353 27.4543 129.403 27.1841 129.522C26.9138 129.641 26.6684 129.827 26.4642 130.067C26.2601 130.306 26.1019 130.594 26.0003 130.912C25.8987 131.229 25.8559 131.568 25.875 131.906V147.094H30.1875V169.875H38.8125V147.094H43.125V131.906C43.1441 131.568 43.1013 131.229 42.9997 130.912C42.8981 130.594 42.7399 130.306 42.5358 130.067C42.3316 129.827 42.0862 129.641 41.8159 129.522C41.5457 129.403 41.2568 129.353 40.9688 129.375H28.0312ZM34.5 121.781C32.7941 121.781 31.1266 121.187 29.7082 120.075C28.2898 118.962 27.1843 117.381 26.5315 115.531C25.8787 113.681 25.7079 111.645 26.0407 109.681C26.3735 107.717 27.195 105.913 28.4012 104.497C29.6074 103.081 31.1443 102.116 32.8173 101.726C34.4904 101.335 36.2246 101.536 37.8006 102.302C39.3767 103.068 40.7237 104.366 41.6714 106.031C42.6192 107.696 43.125 109.654 43.125 111.656C43.125 114.342 42.2163 116.917 40.5988 118.816C38.9813 120.715 36.7875 121.781 34.5 121.781ZM34.5 106.594C33.6471 106.594 32.8133 106.891 32.1041 107.447C31.3949 108.003 30.8422 108.794 30.5158 109.719C30.1894 110.644 30.104 111.662 30.2704 112.644C30.4368 113.626 30.8475 114.528 31.4506 115.236C32.0537 115.944 32.8221 116.426 33.6587 116.621C34.4952 116.817 35.3623 116.717 36.1503 116.333C36.9383 115.95 37.6118 115.301 38.0857 114.469C38.5596 113.636 38.8125 112.658 38.8125 111.656C38.8125 110.314 38.3581 109.026 37.5494 108.077C36.7406 107.127 35.6437 106.594 34.5 106.594Z" fill="white"/>
<g clip-path="url(#clip0_0_1)">
<path d="M74.3125 15.625C73.9313 15.625 73.5656 15.7633 73.296 16.0094C73.0265 16.2556 72.875 16.5894 72.875 16.9375V24.8125C72.875 25.1606 72.7235 25.4944 72.454 25.7406C72.1844 25.9867 71.8187 26.125 71.4375 26.125C71.0563 26.125 70.6906 25.9867 70.421 25.7406C70.1515 25.4944 70 25.1606 70 24.8125V16.9375C70 15.8932 70.4544 14.8917 71.2631 14.1533C72.0719 13.4148 73.1688 13 74.3125 13H82.9375C83.3187 13 83.6844 13.1383 83.954 13.3844C84.2235 13.6306 84.375 13.9644 84.375 14.3125C84.375 14.6606 84.2235 14.9944 83.954 15.2406C83.6844 15.4867 83.3187 15.625 82.9375 15.625H74.3125ZM101.625 14.3125C101.625 13.9644 101.776 13.6306 102.046 13.3844C102.316 13.1383 102.681 13 103.062 13H111.688C112.831 13 113.928 13.4148 114.737 14.1533C115.546 14.8917 116 15.8932 116 16.9375V24.8125C116 25.1606 115.849 25.4944 115.579 25.7406C115.309 25.9867 114.944 26.125 114.562 26.125C114.181 26.125 113.816 25.9867 113.546 25.7406C113.276 25.4944 113.125 25.1606 113.125 24.8125V16.9375C113.125 16.5894 112.974 16.2556 112.704 16.0094C112.434 15.7633 112.069 15.625 111.688 15.625H103.062C102.681 15.625 102.316 15.4867 102.046 15.2406C101.776 14.9944 101.625 14.6606 101.625 14.3125ZM71.4375 41.875C71.8187 41.875 72.1844 42.0133 72.454 42.2594C72.7235 42.5056 72.875 42.8394 72.875 43.1875V51.0625C72.875 51.4106 73.0265 51.7444 73.296 51.9906C73.5656 52.2367 73.9313 52.375 74.3125 52.375H82.9375C83.3187 52.375 83.6844 52.5133 83.954 52.7594C84.2235 53.0056 84.375 53.3394 84.375 53.6875C84.375 54.0356 84.2235 54.3694 83.954 54.6156C83.6844 54.8617 83.3187 55 82.9375 55H74.3125C73.1688 55 72.0719 54.5852 71.2631 53.8467C70.4544 53.1083 70 52.1068 70 51.0625V43.1875C70 42.8394 70.1515 42.5056 70.421 42.2594C70.6906 42.0133 71.0563 41.875 71.4375 41.875ZM114.562 41.875C114.944 41.875 115.309 42.0133 115.579 42.2594C115.849 42.5056 116 42.8394 116 43.1875V51.0625C116 52.1068 115.546 53.1083 114.737 53.8467C113.928 54.5852 112.831 55 111.688 55H103.062C102.681 55 102.316 54.8617 102.046 54.6156C101.776 54.3694 101.625 54.0356 101.625 53.6875C101.625 53.3394 101.776 53.0056 102.046 52.7594C102.316 52.5133 102.681 52.375 103.062 52.375H111.688C112.069 52.375 112.434 52.2367 112.704 51.9906C112.974 51.7444 113.125 51.4106 113.125 51.0625V43.1875C113.125 42.8394 113.276 42.5056 113.546 42.2594C113.816 42.0133 114.181 41.875 114.562 41.875Z" fill="white"/>
<path d="M78.625 49.75C78.625 49.75 75.75 49.75 75.75 47.125C75.75 44.5 78.625 36.625 93 36.625C107.375 36.625 110.25 44.5 110.25 47.125C110.25 49.75 107.375 49.75 107.375 49.75H78.625ZM101.625 26.125C101.625 28.2136 100.716 30.2166 99.0988 31.6935C97.4813 33.1703 95.2875 34 93 34C90.7125 34 88.5187 33.1703 86.9012 31.6935C85.2837 30.2166 84.375 28.2136 84.375 26.125C84.375 24.0364 85.2837 22.0334 86.9012 20.5565C88.5187 19.0797 90.7125 18.25 93 18.25C95.2875 18.25 97.4813 19.0797 99.0988 20.5565C100.716 22.0334 101.625 24.0364 101.625 26.125Z" fill="white"/>
</g>
<g clip-path="url(#clip1_0_1)">
<path d="M210.812 33C213.233 33 215.554 32.1308 217.265 30.5836C218.976 29.0365 219.938 26.938 219.938 24.75C219.938 22.562 218.976 20.4635 217.265 18.9164C215.554 17.3692 213.233 16.5 210.812 16.5C208.392 16.5 206.071 17.3692 204.36 18.9164C202.649 20.4635 201.688 22.562 201.688 24.75C201.688 26.938 202.649 29.0365 204.36 30.5836C206.071 32.1308 208.392 33 210.812 33ZM229.062 22.6875C229.062 22.1405 229.303 21.6159 229.731 21.2291C230.158 20.8423 230.739 20.625 231.344 20.625H249.594C250.199 20.625 250.779 20.8423 251.207 21.2291C251.635 21.6159 251.875 22.1405 251.875 22.6875C251.875 23.2345 251.635 23.7591 251.207 24.1459C250.779 24.5327 250.199 24.75 249.594 24.75H231.344C230.739 24.75 230.158 24.5327 229.731 24.1459C229.303 23.7591 229.062 23.2345 229.062 22.6875ZM229.062 33C229.062 32.453 229.303 31.9284 229.731 31.5416C230.158 31.1548 230.739 30.9375 231.344 30.9375H249.594C250.199 30.9375 250.779 31.1548 251.207 31.5416C251.635 31.9284 251.875 32.453 251.875 33C251.875 33.547 251.635 34.0716 251.207 34.4584C250.779 34.8452 250.199 35.0625 249.594 35.0625H231.344C230.739 35.0625 230.158 34.8452 229.731 34.4584C229.303 34.0716 229.062 33.547 229.062 33ZM233.625 43.3125C233.625 42.7655 233.865 42.2409 234.293 41.8541C234.721 41.4673 235.301 41.25 235.906 41.25H249.594C250.199 41.25 250.779 41.4673 251.207 41.8541C251.635 42.2409 251.875 42.7655 251.875 43.3125C251.875 43.8595 251.635 44.3841 251.207 44.7709C250.779 45.1577 250.199 45.375 249.594 45.375H235.906C235.301 45.375 234.721 45.1577 234.293 44.7709C233.865 44.3841 233.625 43.8595 233.625 43.3125Z" fill="white"/>
<path d="M197.125 8.25C194.705 8.25 192.384 9.11919 190.673 10.6664C188.961 12.2135 188 14.312 188 16.5V49.5C188 51.688 188.961 53.7865 190.673 55.3336C192.384 56.8808 194.705 57.75 197.125 57.75H251.875C254.295 57.75 256.616 56.8808 258.327 55.3336C260.039 53.7865 261 51.688 261 49.5V16.5C261 14.312 260.039 12.2135 258.327 10.6664C256.616 9.11919 254.295 8.25 251.875 8.25H197.125ZM192.562 16.5C192.562 15.406 193.043 14.3568 193.899 13.5832C194.754 12.8096 195.915 12.375 197.125 12.375H251.875C253.085 12.375 254.246 12.8096 255.101 13.5832C255.957 14.3568 256.438 15.406 256.438 16.5V49.5C256.438 50.594 255.957 51.6432 255.101 52.4168C254.246 53.1904 253.085 53.625 251.875 53.625H228.88C229.002 52.9512 229.062 52.2637 229.062 51.5625C229.062 43.5889 220.896 37.125 210.812 37.125C201.295 37.125 193.475 42.8918 192.635 50.2466C192.586 50.0003 192.562 49.7504 192.562 49.5V16.5Z" fill="white"/>
</g>
<path d="M143.75 192C143.75 192 135.562 192 135.562 184.8C135.562 177.6 143.75 156 176.5 156C209.25 156 217.438 177.6 217.438 184.8C217.438 192 209.25 192 209.25 192H143.75ZM176.5 149.16C181.929 149.16 187.135 147.264 190.974 143.888C194.812 140.512 196.969 135.934 196.969 131.16C196.969 126.386 194.812 121.808 190.974 118.432C187.135 115.056 181.929 113.16 176.5 113.16C171.071 113.16 165.865 115.056 162.026 118.432C158.188 121.808 156.031 126.386 156.031 131.16C156.031 135.934 158.188 140.512 162.026 143.888C165.865 147.264 171.071 149.16 176.5 149.16Z" fill="white"/>
<path d="M127.375 84C123.032 84 118.867 85.5171 115.796 88.2177C112.725 90.9182 111 94.5809 111 98.4V166.8C111 169.664 112.294 172.411 114.597 174.437C116.9 176.462 120.024 177.6 123.281 177.6H128.628C130.346 172.311 133.321 167.403 137.356 163.2H119.188V98.4C119.188 96.4904 120.05 94.6591 121.586 93.3088C123.121 91.9586 125.204 91.2 127.375 91.2H225.625C227.796 91.2 229.879 91.9586 231.414 93.3088C232.95 94.6591 233.812 96.4904 233.812 98.4V163.2H215.644C220.18 167.909 222.931 173.086 224.372 177.6H229.719C232.976 177.6 236.1 176.462 238.403 174.437C240.706 172.411 242 169.664 242 166.8V98.4C242 94.5809 240.275 90.9182 237.204 88.2177C234.133 85.5171 229.968 84 225.625 84H127.375Z" fill="white"/>
<g clip-path="url(#clip2_0_1)">
<path fill-rule="evenodd" clip-rule="evenodd" d="M28.7943 209.897C32.2671 207.405 36.9785 206.003 41.8929 206H116.036C116.848 205.999 117.652 206.113 118.402 206.335C119.153 206.556 119.835 206.882 120.41 207.293L169.839 242.722C170.412 243.134 170.867 243.623 171.176 244.161C171.486 244.699 171.644 245.275 171.643 245.857V316.714C171.643 320.238 169.69 323.617 166.214 326.109C162.738 328.6 158.023 330 153.107 330H41.8929C36.9769 330 32.2622 328.6 28.7861 326.109C25.31 323.617 23.3571 320.238 23.3571 316.714V219.286C23.3571 215.761 25.3096 212.377 28.7943 209.897ZM72.2296 240.986C73.8913 240.986 75.5368 240.751 77.072 240.295C78.6072 239.84 80.0022 239.171 81.1772 238.329C82.3522 237.487 83.2842 236.487 83.9201 235.387C84.5561 234.286 84.8834 233.107 84.8834 231.916C84.8834 230.725 84.5561 229.546 83.9201 228.445C83.2842 227.345 82.3522 226.345 81.1772 225.503C80.0022 224.661 78.6072 223.992 77.072 223.537C75.5368 223.081 73.8913 222.846 72.2296 222.846C68.8737 222.846 65.6551 223.802 63.2821 225.503C60.9091 227.204 59.5759 229.511 59.5759 231.916C59.5759 234.321 60.9091 236.628 63.2821 238.329C65.6551 240.03 68.8737 240.986 72.2296 240.986ZM46.5391 281.286C46.5391 278.23 49.9868 275.75 54.25 275.75H140.75C142.723 275.828 144.58 276.444 145.939 277.471C147.299 278.499 148.058 279.861 148.061 281.277C148.064 282.694 147.311 284.057 145.956 285.088C144.601 286.119 142.747 286.739 140.775 286.821H54.2747C52.2253 286.821 50.2596 286.238 48.8092 285.201C47.3589 284.163 46.5424 282.755 46.5391 281.286ZM46.5391 307.857C46.5391 304.801 49.9868 302.321 54.25 302.321H103.679C105.652 302.399 107.508 303.015 108.868 304.043C110.227 305.071 110.986 306.432 110.99 307.849C110.993 309.265 110.24 310.629 108.885 311.659C107.53 312.69 105.676 313.311 103.703 313.393H54.2747C52.2253 313.393 50.2596 312.81 48.8092 311.772C47.3589 310.734 46.5424 309.326 46.5391 307.857ZM72.242 247.044C63.592 247.044 55.6958 249.373 49.7273 253.209C46.1808 255.485 48.9488 259.143 53.7063 259.143H90.753C95.5229 259.143 98.2909 255.485 94.7444 253.209C88.5601 249.23 80.5518 247.034 72.242 247.044Z" fill="white"/>
</g>
<defs>
<clipPath id="clip0_0_1">
<rect width="46" height="42" fill="white" transform="translate(70 13)"/>
</clipPath>
<clipPath id="clip1_0_1">
<rect width="73" height="66" fill="white" transform="translate(188)"/>
</clipPath>
<clipPath id="clip2_0_1">
<rect width="173" height="124" fill="white" transform="translate(11 206)"/>
</clipPath>
</defs>
</svg>

